PathFileType	4	(X/Y/Z)	34_1_34_p1_0-563.trc
DataRate	CameraRate	NumFrames	NumMarkers	Units	OrigDataRate	OrigDataStartFrame	OrigNumFrames
59.0	59.0	5	27	m	59.0	423	564
Frame#	Time	RHip			RKnee			RAnkle			RBigToe			RSmallToe			RHeel			LHip			LKnee			LAnkle			LBigToe			LSmallToe			LHeel			Neck			Head			Nose			RShoulder			RElbow			RWrist			RThumb			RIndex			RPinky			LShoulder			LElbow			LWrist			LThumb			LIndex			LPinky			
		X1	Y1	Z1	X2	Y2	Z2	X3	Y3	Z3	X4	Y4	Z4	X5	Y5	Z5	X6	Y6	Z6	X7	Y7	Z7	X8	Y8	Z8	X9	Y9	Z9	X10	Y10	Z10	X11	Y11	Z11	X12	Y12	Z12	X13	Y13	Z13	X14	Y14	Z14	X15	Y15	Z15	X16	Y16	Z16	X17	Y17	Z17	X18	Y18	Z18	X19	Y19	Z19	X20	Y20	Z20	X21	Y21	Z21	X22	Y22	Z22	X23	Y23	Z23	X24	Y24	Z24	X25	Y25	Z25	X26	Y26	Z26	X27	Y27	Z27	
423	7.169491525423729	0.40176727320484995	0.5066606372030681	0.9410743671982214	0.4060402647259445	0.6568216730649261	1.379168236707518	0.3822108760148607	0.7691252399055496	1.7456121425978997	0.3441287014891827	0.5792085194895344	1.7860780414990376	0.40905896241739	0.599854116170627	1.786275841376151	0.35310474613492043	0.881703018691982	1.7987468762502725	0.16642693973829795	0.523538316207912	0.9579816894919663	0.16764240874713604	0.6368814630019848	1.363125359069407	0.167884344863349	0.7517222416549352	1.7364670815001177	0.1982920949722954	0.5731925505379297	1.779744536084637	0.13544186681938963	0.6139658551406875	1.7894501436738048	0.17790016278588855	0.8140396952168236	1.7946828926271348	0.30344487539640064	0.3645247023287371	0.4531757490630728	0.33540143402286254	0.20511706528080928	0.2120430854803033	0.3200233497473055	0.19777949793187768	0.3800182708068703	0.4567004648852663	0.4110616462223851	0.5165876294869874	0.50742623209715	0.4102455717161364	0.774420432589413	0.364096601224745	0.3530888035485676	0.9450367454080205	0.26868880645552745	0.351103598582665	1.0086970188779916	0.2659287875286527	0.3684068820525465	1.0345626096841727	0.26835297647765016	0.36025577863315245	1.042786708785829	0.13122716146241864	0.40645929463045777	0.504819602249026	0.07960646393049343	0.42657893710618944	0.7691032579986935	0.19505237768368544	0.3348299489503407	0.9455159702083665	0.29863293504151617	0.29855558530523846	0.9647145425941912	0.306303388720228	0.3124559474714191	1.013479312784397	0.26329345710101354	0.37120145762911577	1.0564199635216527
424	7.186440677966102	0.40178202827189763	0.50677691666746	0.941023858840127	0.40142996815628273	0.640785834243859	1.371553940178533	0.38660493490071324	0.7517255637654466	1.7394039486748927	0.34421676603310775	0.5793592402289572	1.7861724722101155	0.41309414508650544	0.5838389228223625	1.7799863089543382	0.35309453431942056	0.8815593827463071	1.7987261513194424	0.17156052943781738	0.5101726845173908	0.9561885226177548	0.16843467320432368	0.6398042777497718	1.3683041215779648	0.16784696825306536	0.7515232084387873	1.7365129188344468	0.19827964576948687	0.5731787246995307	1.7797745582742215	0.135493720551678	0.6139528464266926	1.7895166381461052	0.18342754084887453	0.796381275894333	1.7884818887206844	0.3035005433096871	0.36454958391697734	0.4531304339474294	0.3355257295971596	0.20562282232482054	0.21502286121943504	0.3170548606790384	0.18734106575580153	0.3809090801880067	0.45676425094494	0.4110194253155032	0.5165836763147478	0.5069148321114534	0.4080588204430056	0.7708833040349294	0.3641172114759021	0.35303298238272923	0.9450063896110309	0.2655796708527945	0.3644307721414073	1.0118764690806763	0.2664536628561482	0.367298875613188	1.0313675227719143	0.2683125434222913	0.3599645790390216	1.0427475561222093	0.1312687145476251	0.4064705097203815	0.5047580522913567	0.07970397338763882	0.42659218770756335	0.7690288198333501	0.19779212349813216	0.3469605846142199	0.9467152919855173	0.2987454743496876	0.29921428059889693	0.9649386727330347	0.30621923169342724	0.31276815863752244	1.0134130587683767	0.2627026989932009	0.36888626703662974	1.0528960275396426
425	7.203389830508475	0.4058353075063321	0.4922539022169173	0.9392676951834399	0.4017354235081879	0.6444707233260626	1.371901423970634	0.3821935188226065	0.7690098973301458	1.74555649960413	0.34423960943492593	0.5794817416086067	1.786180237509759	0.40923352238371435	0.6001383168379966	1.7864014438123699	0.3530659300274647	0.8812293527262569	1.7986432577375566	0.1716050359852871	0.5100991280337167	0.9559568315373783	0.16767331837118882	0.6367100760668003	1.3630593086741227	0.16788568451841143	0.7515077656657677	1.736629615358794	0.19825493262436908	0.5731170064979889	1.7798040832604887	0.13542626282759906	0.6143173105314543	1.7896006979926566	0.1834791744750479	0.7958301155261394	1.7882638920426446	0.30353023405264956	0.3645426587317833	0.45301837946586215	0.3427355175807931	0.21631807104503098	0.21023335231744314	0.3236745398755679	0.18664851778588323	0.3806934463821014	0.45674140094741217	0.41090894039899883	0.5165963206489044	0.5069199184404704	0.40795149454864743	0.7708613808357009	0.3641712709047571	0.3527970434229638	0.9448807035313186	0.2655855790920818	0.3647072065162988	1.0116209406634271	0.26687291582543865	0.36655213875331133	1.0344113024245811	0.264439489362774	0.3716110796439211	1.044601471534061	0.13130709218536707	0.4064751459905066	0.5045648562511169	0.08015207467030414	0.42538039579852416	0.7655616994496225	0.19559673748494405	0.3338464645984365	0.9419059441918317	0.30169552324172766	0.3097636005827886	0.9661827701265793	0.30624583298892655	0.31282734653256256	1.0137286924515936	0.2625702985233654	0.36875721066831196	1.0527938436790691
426	7.220338983050848	0.4020519500797929	0.510160020475845	0.9495127039013556	0.4020209852859368	0.6427481444663335	1.375736534073991	0.3912740117421136	0.75324109316252	1.7396523274345979	0.34413632832153057	0.5789724213133216	1.7859336361606661	0.4093089609404611	0.5994229333234811	1.786157400692512	0.35316126567906264	0.8816268458005366	1.798732077824108	0.17156723178249517	0.5100173636306126	0.956279285622527	0.16842187930439212	0.6395585302174869	1.3689083531205182	0.16705347068800896	0.7482294583781421	1.7307654392902332	0.19577953366653372	0.5585222420625062	1.7740740466265879	0.13968389318040073	0.5960516668531028	1.7778193214473805	0.18346346966299718	0.7962230934420608	1.788345338627974	0.30360163631304105	0.3644955975050681	0.45310233440528275	0.34686251655382844	0.2165970838610367	0.21311676164017235	0.3275967197295503	0.18795161397063173	0.3804381826006589	0.4563547351822541	0.40879866608001963	0.513384354359728	0.5068711572207123	0.40811078840765896	0.7710034757494296	0.36462681598343644	0.35126350410684287	0.9414031693766568	0.26957862083098094	0.34881704350139886	1.0084135254900535	0.2668913974100524	0.36590352583469604	1.0342152415610666	0.2649040444265776	0.37063787262182074	1.0413119967909452	0.13383411723559357	0.41910108828126713	0.5003618845517365	0.07937371572179512	0.42710911023699943	0.7652152211762364	0.19778927571277644	0.34730062940203765	0.9467011737921357	0.29686154165855816	0.3238504413173709	0.9716763442017718	0.3018223709998784	0.3262543858683015	1.0192633388273653	0.2630165523099312	0.3680295147238657	1.0492163273912756
427	7.237288135593221	0.4013272306559649	0.5077774109584938	0.944974288729958	0.40598867553474144	0.6570887237451256	1.3791298804915828	0.3868773411627633	0.77068642528908	1.7458550989952561	0.3441527762340851	0.5790825945297557	1.7860373633256714	0.40928469154554203	0.5996168529701041	1.786285439465031	0.3531882389620448	0.8818249206211524	1.7986236680072178	0.16640571523919365	0.5235026974137179	0.9578567752138457	0.1684196651777454	0.6397761222354016	1.3684880430742896	0.16834252986954068	0.750120836137565	1.7405905046715529	0.19584069928510808	0.5585950137637206	1.7742365068951456	0.14026914209131736	0.599506860259172	1.7835765574655622	0.1833472343913505	0.7959187813628416	1.788190998089165	0.30359181854321404	0.3645512086522889	0.4530703235220983	0.34700475237799083	0.2166874989861996	0.21314615198235728	0.3276806648987556	0.18806822761864742	0.3803653724567073	0.45635303856695586	0.4090656790977938	0.513383193608177	0.5069850625286926	0.40823812980031604	0.7708605503097694	0.36487263541128917	0.35142309251903747	0.9411702669342511	0.27058459964917114	0.35158831119337663	1.0129816728392353	0.26710148987656296	0.3662337451259126	1.0339268793820535	0.2649678695591364	0.3707921780746222	1.0412241603677275	0.13382832313774043	0.41919154225605976	0.5003151541617182	0.07929070090570522	0.42715166125088316	0.7652269965685392	0.19491168700205952	0.33499556422686405	0.9455206464627052	0.30091672218671134	0.31049254044876323	0.9696652193812196	0.3017930300003916	0.3258386602858745	1.0192442893772653	0.263640699156364	0.37060798332803185	1.0528096319941949
